PathFileType	4	(X/Y/Z)	C:/Users/beibeiliu/ov580/test_trc/User3\sequence.9_training_dense_right.trc
DataRate	CameraRate	NumFrames	NumMarkers	Units	OrigDataRate	OrigDataStartFrame	OrigNumFrames
120	120	14	19	mm	120	107	213
Frame#	Time	ThumbCMC			ThumbMCP			ThumbIP			ThumbTip			IndexMCP			IndexPIP			IndexTip			MiddleMCP			MiddlePIP			MiddleTip			RingMCP			RingPIP			RingTip			PinkyMCP			PinkyPIP			PinkyTip			BackHand1			BackHand2			BackHand3	
		X0	Y0	Z0	X1	Y1	Z1	X2	Y2	Z2	X3	Y3	Z3	X4	Y4	Z4	X5	Y5	Z5	X6	Y6	Z6	X7	Y7	Z7	X8	Y8	Z8	X9	Y9	Z9	X10	Y10	Z10	X11	Y11	Z11	X12	Y12	Z12	X13	Y13	Z13	X14	Y14	Z14	X15	Y15	Z15	X16	Y16	Z16	X17	Y17	Z17	X18	Y18	Z18	
106	0.883333	149.087	-4.93602	32.9449	124.511	-4.84263	7.21888	109.216	-15.0149	-20.229	102.558	-34.8058	-31.4764	171.078	-22.486	-41.1721	168.686	-21.6578	-66.606	157.71	-23.9941	-94.215	147.134	-46.3964	-43.0051	114.507	-46.1769	-40.5996	115.018	-39.9313	0.884316	141.448	-60.3184	-30.5664	113.407	-58.5506	-20.9236	115.229	-47.5828	9.22036	142.897	-79.9847	-14.4953	115.867	-69.2228	-3.50087	122.799	-58.4164	20.4482	186.249	-62.101	10.0183	189.356	-60.334	43.7741	184.306	-25.2407	21.9029	
107	0.891667	144.257	-5.16483	35.948	121.677	-8.68545	9.28656	105.605	-15.5523	-18.066	97.6807	-33.8696	-32.9308	166.953	-14.7779	-38.8651	162.813	-11.0361	-68.5079	150.418	-15.9147	-94.9047	143.128	-39.8729	-44.0904	111.518	-41.2689	-40.3348	109.377	-42.4108	-2.50445	139.105	-57.0681	-29.0105	109.371	-60.0986	-16.1499	114.244	-47.4937	11.6002	137.931	-76.6575	-16.2519	114.382	-69.0663	-6.7697	122.263	-53.2921	20.4596	182.468	-58.1574	10.3234	187.113	-54.6024	39.9543	180.414	-22.0911	25.2952	
108	0.9	142.488	-7.41736	38.508	116.91	-5.40432	9.87437	98.8543	-10.6617	-14.4861	95.2301	-32.4662	-30.3683	162.501	-11.8286	-35.7773	157.022	-8.3917	-68.0959	142.996	-9.11157	-92.0623	143.568	-34.9626	-38.6752	109.126	-42.5606	-39.809	106.296	-37.892	-0.364802	133.805	-55.2254	-29.0087	107.053	-58.6635	-15.129	115.149	-48.445	17.3303	133.506	-72.6636	-16.6716	112.878	-65.6161	-5.43783	121.373	-54.2901	24.2577	179.419	-55.9953	11.8351	185.337	-51.094	40.7174	179.262	-19.9334	26.1757	
109	0.908333	139.751	-3.62955	40.2669	115.943	-4.02462	15.8137	97.5463	-10.458	-13.148	93.432	-30.7172	-28.4541	158.457	-5.7546	-32.189	152.346	-2.45187	-61.911	133.117	-4.89106	-88.5623	137.35	-35.1358	-40.4243	105.89	-34.4034	-37.4792	104.117	-38.5772	1.01656	132.912	-54.9436	-27.1009	106.321	-57.0682	-16.1908	113.276	-47.3983	16.5134	134.344	-67.9865	-16.9715	110.4	-63.1835	-1.46242	122.637	-52.0114	23.0879	177.558	-51.2303	11.7097	184.755	-52.8505	41.3329	174.543	-19.3875	29.4802	
110	0.916667	138.033	-1.63185	38.8062	112.576	-2.1616	15.9515	94.8538	-5.10157	-8.75128	90.4016	-27.3727	-29.9056	157.475	-6.61097	-31.0238	146.547	-0.906605	-63.6469	122.442	-0.458284	-80.3596	138.83	-26.8411	-37.5764	103.389	-34.4749	-33.5838	106.031	-35.6098	4.56392	134.31	-50.0787	-25.8042	103.296	-49.2865	-12.815	112.008	-43.8973	15.0702	133.578	-66.4563	-17.04	110.83	-59.3415	-3.46007	122.059	-53.383	26.0776	176.855	-49.7055	13.0654	181.479	-50.3054	44.7646	174.891	-15.7722	28.0935	
111	0.925	137.265	-3.86796	40.6981	112.64	-1.46485	18.5756	95.1667	-3.06647	-6.58462	91.0195	-24.315	-26.4351	156.534	-2.48443	-31.2654	142.742	2.56188	-62.4573	112.567	0.0838443	-70.2749	137.664	-26.6117	-37.4493	104.204	-28.6507	-36.0864	108.79	-31.9517	6.89737	132.509	-48.3471	-26.3036	104.389	-47.4825	-14.0264	115.076	-41.8217	17.9857	135.567	-62.5095	-15.342	110.424	-58.9594	-2.69034	120.69	-53.1039	23.98	175.553	-42.422	10.1102	181.826	-50.6887	42.27	174.004	-13.5253	33.2372	
112	0.933333	137.003	-1.2088	41.4641	114.171	-0.743024	16.1329	96.3792	-2.68049	-7.01839	90.9379	-23.5592	-27.3109	154.06	1.56577	-30.1293	138.366	2.30062	-61.4398	110.399	-1.62912	-62.5541	133.309	-21.545	-38.874	104.197	-29.1077	-36.4996	107.188	-28.1727	5.6796	130.476	-42.8612	-27.7531	102.406	-46.2469	-12.9081	115.374	-41.1074	18.891	133.021	-62.974	-15.688	107.815	-59.8695	-0.438339	121.903	-51.0054	24.7063	176.732	-44.183	9.22773	181.206	-47.9833	41.7117	171.031	-13.263	31.0869	
113	0.941667	136.207	2.16444	44.2194	110.184	4.78806	20.0284	95.035	-0.062161	-10.0204	89.0732	-19.9518	-25.9613	154.306	0.555374	-30.9337	137.729	7.04306	-58.7132	103.26	-3.95642	-55.9911	136.076	-24.8454	-37.2067	101.997	-29.5192	-32.6987	105.117	-28.9335	2.53952	129.795	-41.0374	-27.0395	102.545	-48.9768	-14.04	113.455	-39.3709	18.9379	129.427	-61.1654	-17.012	107.484	-54.28	-1.42883	118.679	-51.3268	24.6785	173.916	-41.9231	9.29556	178.604	-45.8625	44.8114	170.625	-11.7684	33.2847	
114	0.95	135.133	1.54859	42.4768	111.562	3.38408	21.1094	96.4034	-1.18993	-4.13077	91.268	-20.4696	-25.8033	152.215	3.47352	-31.2186	133.463	5.63654	-58.6888	102.518	-2.87855	-53.6376	134.629	-23.4868	-39.1205	103.275	-23.9481	-35.5131	104.66	-26.6343	3.30666	129.512	-39.03	-27.8038	101.141	-46.0006	-12.6212	109.934	-42.1899	16.5897	131.409	-61.8125	-17.3535	106.748	-55.7284	-1.20578	117.893	-51.5225	24.1794	175.542	-42.9708	13.6486	179.906	-42.8927	40.372	169.792	-10.1158	34.273	
115	0.958333	134.703	1.90987	47.2408	108.931	5.77606	22.1733	92.7329	2.48275	-3.1691	89.8966	-19.3562	-21.9054	151.693	2.03914	-29.5691	132.083	7.83736	-58.8844	98.6325	2.65935	-53.4038	133.546	-19.1231	-37.5566	99.3415	-26.7865	-31.7326	105.108	-25.3692	8.30418	131.339	-42.2318	-25.1739	101.117	-43.1979	-14.6728	110.715	-41.3234	17.7387	130.002	-57.1836	-16.7486	107.31	-52.6259	-1.67024	117.248	-46.763	23.4456	173.76	-40.9389	13.8146	178.401	-43.5024	43.0437	172.158	-11.4515	30.8717	
116	0.966667	135.891	-0.314834	43.7075	108.24	4.38041	21.7469	89.4467	2.75099	-3.64364	85.41	-16.2827	-19.7954	149.252	4.3193	-29.7482	129.478	11.8618	-59.5103	98.5792	1.54096	-60.4023	129.143	-16.7929	-37.102	97.7415	-26.6956	-29.5769	102.985	-29.1552	7.8297	125.265	-39.1751	-25.8109	99.6355	-45.0734	-12.0276	109.747	-40.1984	18.0845	128.636	-54.8733	-16.5743	106.101	-55.0886	-3.144	118.413	-44.7322	24.4854	172.265	-37.7362	9.18199	180.915	-41.639	44.2896	171.579	-7.75692	33.6309	
117	0.975	135.101	-0.386502	44.5205	106.729	6.15196	25.1053	91.2298	-0.563256	-0.42679	80.9667	-16.3679	-20.8666	145.901	10.1913	-31.7336	129.601	15.9035	-57.083	101.018	9.77245	-67.9606	126.944	-17.1998	-35.3774	96.5604	-21.0281	-32.1283	99.2559	-26.8352	9.28007	123.593	-40.7985	-24.0705	98.1739	-42.7737	-9.08226	110.749	-35.051	22.834	123.182	-57.2974	-14.8574	103.822	-53.8011	0.367224	119.181	-43.4325	28.0974	170.722	-36.8885	9.36152	178.296	-45.8807	42.5525	168.796	-8.27575	28.5337	
118	0.983333	134.858	3.17525	47.934	106.963	4.94026	23.3324	86.9052	2.90669	3.52247	78.8889	-14.2164	-17.2661	142.55	10.4383	-27.2862	128.564	18.94	-54.2157	103.134	18.5452	-71.322	125.777	-16.2114	-31.9711	92.7569	-20.4782	-29.7038	95.6429	-28.5611	9.99833	117.793	-40.3953	-23.0691	94.8755	-42.7639	-2.55349	107.677	-33.2056	24.8181	124.651	-56.3666	-12.065	101.794	-53.111	8.53096	116.083	-44.0113	29.0799	170.778	-38.7527	10.7789	177.633	-45.1931	41.0887	169.65	-8.56291	27.8136	
119	0.991667	132.545	2.95722	47.7447	104.276	6.68285	27.0694	86.0965	2.55535	5.99959	74.9891	-12.6981	-12.1832	137.702	12.6452	-25.1099	123.485	18.9733	-52.7173	104.024	22.3878	-70.665	119.184	-15.1532	-33.0101	87.7523	-20.1628	-25.3962	90.9762	-28.22	10.485	117.74	-35.6306	-19.8043	92.1311	-41.2988	-0.0494538	104.749	-33.2957	25.1341	121.775	-57.5922	-10.2158	99.8341	-49.445	9.55535	115.97	-42.0175	31.9661	166.626	-36.1823	12.4276	176.528	-40.1866	38.6043	165.341	-5.437	30.2952	
